<?xml version="1.0" encoding="utf-8"?>
<!-- Generator: Adobe Illustrator 16.0.0, SVG Export Plug-In . SVG Version: 6.00 Build 0)  -->
<!DOCTYPE svg PUBLIC "-//W3C//DTD SVG 1.1//EN" "http://www.w3.org/Graphics/SVG/1.1/DTD/svg11.dtd">
<svg version="1.1" id="Layer_1" xmlns="http://www.w3.org/2000/svg" xmlns:xlink="http://www.w3.org/1999/xlink" x="0px" y="0px"
	 width="388.812px" height="72.728px" viewBox="0 0 388.812 72.728" enable-background="new 0 0 388.812 72.728"
	 xml:space="preserve">
<g>
	<g>
		<path d="M12.572,49.395l0.092,2.811l0.092,3.867l0.141,3.172l0.09,1.107l-0.23-0.922c-0.413-1.746-0.873-3.41-1.33-5.156
			c-0.14-0.457-0.322-1.105-0.555-1.934L6.909,38.482H3.088v30.709h3.734v-9.898c0-1.703-0.049-5.02-0.142-7.047l-0.182-3.68v-0.693
			c0.274,1.338,0.364,1.889,0.646,2.951c0.412,1.609,0.913,3.496,1.288,4.785l4.14,13.582h3.733V38.482h-3.733V49.395z"/>
		<polygon points="25.682,55.057 29.918,55.057 29.918,51.143 25.682,51.143 25.682,42.391 31.527,42.391 31.527,38.482 
			21.076,38.482 21.076,69.191 31.897,69.191 31.897,65.277 25.682,65.277 		"/>
		<rect x="36.666" y="38.482" width="4.606" height="30.709"/>
		<path d="M50.982,43.639c0.23-1.061,0.828-1.611,1.792-1.611c1.201,0,1.842,1.289,2.028,4.145l4.56-0.598
			c-0.738-5.156-2.762-7.461-6.587-7.461c-3.36,0-5.617,2.025-6.353,5.711c-0.51,2.389-0.734,5.113-0.734,9.758
			c0,11.648,1.701,15.887,6.353,15.887c1.979,0,3.177-0.783,3.911-2.535l0.416,2.398h2.994V53.77h-6.447v4.051h2.166v1.977
			c0,4.561-0.557,6.078-2.214,6.031c-1.428,0-2.071-1.336-2.21-4.65c-0.09-2.023-0.181-5.66-0.181-7.918
			c0-2.07,0.042-4.74,0.136-6.955C50.656,45.344,50.795,44.418,50.982,43.639z"/>
		<polygon points="72.74,51.467 68.736,51.467 68.736,38.482 64.137,38.482 64.137,69.191 68.736,69.191 68.736,55.562 
			72.74,55.562 72.74,69.191 77.346,69.191 77.346,38.482 72.74,38.482 		"/>
		<path d="M90.445,52.844c2.211-0.457,3.405-2.805,3.405-6.631c0-3.219-0.734-5.197-2.301-6.443
			c-1.337-1.012-2.393-1.287-4.972-1.287h-4.144v30.709h4.144c3.037,0,4.466-0.414,5.802-1.654c1.566-1.475,2.302-3.641,2.302-6.863
			C94.682,56.16,93.258,53.488,90.445,52.844z M86.811,42.027h0.643c1.613,0,2.211,1.195,2.211,4.557
			c0,3.592-0.508,4.654-2.211,4.654h-0.643V42.027z M87.59,65.555h-0.779V54.781h0.779c1.885,0,2.529,1.379,2.529,5.615
			C90.119,64.492,89.569,65.555,87.59,65.555z"/>
		<path d="M109.71,39.998c-1.017-1.193-2.623-1.885-4.421-1.885c-2.766,0-4.928,1.656-5.803,4.418
			c-0.829,2.629-1.152,5.801-1.152,11.143c0,8.475,0.787,12.248,2.858,14.322c1.058,1.012,2.44,1.566,4.097,1.566
			c2.943,0,5.063-1.709,5.893-4.699c0.783-2.715,1.108-6.398,1.108-11.004s-0.325-8.332-1.108-11.051
			C110.905,41.748,110.352,40.783,109.71,39.998z M106.715,64.816c-0.229,0.602-0.74,0.924-1.379,0.924
			c-1.154,0-1.704-0.924-1.843-3.135c-0.188-2.898-0.232-4.785-0.232-8.102v-0.645c0-3.5,0.044-5.48,0.232-8.797
			c0.047-0.828,0.183-1.607,0.413-2.209c0.234-0.594,0.737-0.918,1.43-0.918c1.195,0,1.701,0.918,1.843,3.127
			c0.183,3.504,0.229,5.438,0.229,9.58C107.407,60.719,107.179,63.576,106.715,64.816z"/>
		<path d="M128.855,47.32c0-6.027-2.217-8.838-7.05-8.838h-5.339v30.709h4.605V55.98h1.103l2.993,13.211h4.742l-3.867-14.32
			C128.023,53.77,128.855,51.557,128.855,47.32z M121.805,51.973h-0.734v-9.582h0.734c1.062,0,1.382,0.141,1.66,0.785
			c0.416,0.738,0.551,1.984,0.551,4.008C124.016,51.004,123.559,51.973,121.805,51.973z"/>
		<polygon points="142.226,51.467 138.218,51.467 138.218,38.482 133.617,38.482 133.617,69.191 138.218,69.191 138.218,55.562 
			142.226,55.562 142.226,69.191 146.83,69.191 146.83,38.482 142.226,38.482 		"/>
		<path d="M162.764,39.998c-1.015-1.193-2.627-1.885-4.424-1.885c-2.762,0-4.924,1.656-5.801,4.418
			c-0.828,2.629-1.152,5.801-1.152,11.143c0,8.475,0.788,12.248,2.857,14.322c1.059,1.012,2.442,1.566,4.096,1.566
			c2.947,0,5.066-1.709,5.896-4.699c0.783-2.715,1.105-6.398,1.105-11.004s-0.322-8.332-1.105-11.051
			C163.958,41.748,163.406,40.783,162.764,39.998z M159.768,64.816c-0.229,0.602-0.735,0.924-1.378,0.924
			c-1.152,0-1.703-0.924-1.843-3.135c-0.183-2.898-0.232-4.785-0.232-8.102v-0.645c0-3.5,0.05-5.48,0.232-8.797
			c0.045-0.828,0.182-1.607,0.415-2.209c0.229-0.594,0.734-0.918,1.428-0.918c1.196,0,1.702,0.918,1.841,3.127
			c0.184,3.504,0.23,5.438,0.23,9.58C160.461,60.719,160.23,63.576,159.768,64.816z"/>
		<path d="M180.958,39.998c-1.014-1.193-2.622-1.885-4.416-1.885c-2.764,0-4.928,1.656-5.805,4.418
			c-0.828,2.629-1.148,5.801-1.148,11.143c0,8.475,0.779,12.248,2.854,14.322c1.055,1.012,2.44,1.566,4.1,1.566
			c2.946,0,5.062-1.709,5.893-4.699c0.779-2.715,1.104-6.398,1.104-11.004s-0.324-8.332-1.104-11.051
			C182.157,41.748,181.604,40.783,180.958,39.998z M177.968,64.816c-0.229,0.602-0.736,0.924-1.383,0.924
			c-1.153,0-1.701-0.924-1.841-3.135c-0.183-2.898-0.229-4.785-0.229-8.102v-0.645c0-3.5,0.045-5.48,0.229-8.797
			c0.044-0.828,0.184-1.607,0.415-2.209c0.23-0.594,0.736-0.918,1.426-0.918c1.2,0,1.704,0.918,1.843,3.127
			c0.186,3.504,0.232,5.438,0.232,9.58C178.66,60.719,178.428,63.576,177.968,64.816z"/>
		<path d="M197.86,40.184c-1.469-1.332-2.668-1.701-5.478-1.701h-4.372v30.709h5.11c3.639,0,5.663-1.338,6.722-4.375
			c0.922-2.668,1.336-6.266,1.336-11.047C201.179,46.266,200.214,42.303,197.86,40.184z M195.515,63.576
			c-0.459,1.24-1.106,1.701-2.394,1.701h-0.506V42.391h0.506c2.531,0,3.271,2.719,3.271,11.746
			C196.392,58.922,196.112,61.82,195.515,63.576z"/>
		<path d="M221.115,3.787l-10.104,65.41h8.729L221.8,51.15h7.847l2.253,18.047h9.221l-10.398-65.41H221.115z M222.482,43.209
			l1.278-11.572l0.395-4.312l0.684-7.063c0.195-2.45,0.296-3.628,0.49-6.472l0.197,1.863l0.492,4.608l0.683,6.768l0.589,4.608
			l1.471,11.572H222.482z"/>
		<polygon points="258.175,3.787 248.374,3.787 248.374,69.197 270.435,69.197 270.435,60.863 258.175,60.863 		"/>
		<polygon points="288.183,3.787 278.382,3.787 278.382,69.197 300.442,69.197 300.442,60.863 288.183,60.863 		"/>
		<rect x="308.382" y="3.787" width="9.809" height="65.41"/>
		<polygon points="339.466,39.086 348.491,39.086 348.491,30.754 339.466,30.754 339.466,12.123 351.923,12.123 351.923,3.787 
			329.661,3.787 329.661,69.197 352.704,69.197 352.704,60.863 339.466,60.863 		"/>
		<path d="M382.616,38.99c-1.767-3.135-3.24-4.803-7.453-8.434c-5.299-4.41-6.478-6.569-6.478-11.47
			c0-5.396,0.984-7.747,3.044-7.747c2.058,0,2.942,1.764,3.434,7.156l9.118-1.178c-0.786-9.312-5.2-14.314-12.65-14.314
			c-7.944,0-12.65,6.177-12.65,16.867c0,5.393,0.981,8.725,3.726,12.941c1.375,1.961,2.846,3.727,4.416,5.102l3.33,2.744
			c3.725,3.137,5.195,6.475,5.195,11.768c0,6.473-1.27,9.418-4.213,9.418c-2.942,0-4.022-2.158-4.119-8.635l-9.215,0.982v0.395
			c0,9.609,4.996,15.391,13.234,15.391c9.416,0,14.023-6.371,14.023-19.219C385.358,45.758,384.674,42.52,382.616,38.99z"/>
	</g>
</g>
<g>
</g>
<g>
</g>
<g>
</g>
<g>
</g>
<g>
</g>
<g>
</g>
</svg>
