<?xml version="1.0" standalone="no"?>
<!DOCTYPE svg PUBLIC "-//W3C//DTD SVG 20010904//EN"
 "http://www.w3.org/TR/2001/REC-SVG-20010904/DTD/svg10.dtd">
<svg version="1.0" xmlns="http://www.w3.org/2000/svg"
 width="500.000000pt" height="500.000000pt" viewBox="0 0 500.000000 500.000000"
 preserveAspectRatio="xMidYMid meet">
<metadata>
Created by potrace 1.11, written by Peter Selinger 2001-2013
</metadata>
<g transform="translate(0.000000,500.000000) scale(0.100000,-0.100000)"
fill="#000000" stroke="none">
<path d="M4588 4995 c-2 -2 -37 -6 -79 -9 -42 -4 -87 -8 -100 -11 -13 -2 -58
-6 -99 -10 -41 -4 -82 -8 -91 -10 -10 -2 -50 -6 -90 -9 -41 -4 -90 -9 -109
-11 -38 -4 -129 -14 -200 -20 -72 -8 -143 -15 -175 -19 -32 -4 -126 -14 -210
-21 -50 -5 -103 -11 -182 -20 -23 -3 -68 -7 -100 -10 -32 -2 -78 -7 -103 -10
-60 -7 -123 -14 -190 -20 -30 -3 -76 -8 -102 -10 -27 -3 -69 -7 -95 -10 -27
-2 -73 -7 -103 -10 -30 -3 -71 -7 -90 -10 -19 -2 -57 -6 -85 -9 -47 -5 -74 -8
-205 -21 -30 -3 -73 -8 -95 -10 -22 -2 -67 -7 -100 -10 -33 -3 -71 -8 -85 -10
-14 -2 -54 -6 -90 -10 -36 -3 -86 -7 -112 -10 -89 -9 -133 -14 -198 -19 -36
-4 -81 -9 -100 -11 -19 -3 -52 -7 -74 -10 -21 -2 -41 -7 -44 -9 -6 -7 -6 -712
1 -722 4 -7 3310 -11 3360 -5 4 1 7 244 7 540 l0 540 -30 -1 c-16 -1 -31 -2
-32 -3z"/>
<path d="M5 4593 c3 -32 7 -74 10 -93 2 -19 9 -80 14 -135 20 -191 32 -310 36
-345 2 -19 7 -62 10 -95 3 -33 7 -82 10 -110 3 -27 8 -72 11 -100 3 -27 7 -61
9 -75 2 -14 6 -61 10 -105 4 -44 8 -87 10 -95 2 -8 6 -51 10 -95 4 -44 8 -93
10 -110 6 -49 13 -116 20 -190 4 -38 8 -81 10 -95 2 -14 7 -54 10 -90 3 -36 8
-78 10 -95 2 -16 6 -66 10 -110 4 -44 8 -82 10 -85 2 -3 6 -45 10 -95 3 -49 8
-97 10 -105 3 -8 7 -49 10 -90 3 -41 8 -86 10 -100 2 -14 7 -59 10 -100 3 -41
8 -82 10 -90 2 -8 7 -47 10 -87 4 -40 8 -85 10 -100 2 -15 6 -66 10 -113 4
-47 9 -94 11 -104 2 -11 6 -47 9 -80 7 -85 15 -155 21 -196 l5 -35 360 2 c199
1 364 4 367 7 3 4 6 762 6 1686 l1 1680 -543 0 -542 0 5 -57z"/>
<path d="M2285 3768 c-321 -44 -602 -284 -694 -593 -30 -102 -33 -119 -37
-240 -6 -197 -3 -205 269 -775 25 -52 61 -129 80 -170 44 -97 192 -409 272
-575 34 -71 73 -140 87 -153 29 -26 113 -59 144 -57 57 5 96 18 134 46 46 33
34 11 275 524 65 138 137 292 161 343 300 634 287 599 287 792 0 160 -21 259
-84 387 -51 104 -76 138 -170 232 -121 121 -300 214 -454 236 -77 11 -204 12
-270 3z m267 -446 c180 -64 292 -230 284 -420 -14 -317 -350 -506 -636 -357
-65 34 -145 121 -180 196 -158 343 175 707 532 581z"/>
<path d="M3939 3720 l-23 -6 0 -1669 c-1 -919 0 -1676 2 -1682 3 -10 121 -13
543 -13 l539 0 -5 52 c-10 91 -14 131 -20 198 -3 36 -8 81 -11 101 -4 36 -8
68 -19 184 -3 33 -8 76 -10 95 -3 19 -7 60 -10 90 -3 30 -7 73 -9 95 -2 22 -7
71 -11 108 -3 37 -8 76 -10 85 -1 9 -6 53 -10 97 -4 44 -8 91 -10 105 -1 14
-5 57 -9 95 -11 102 -18 174 -31 285 -3 19 -7 64 -10 100 -3 36 -8 81 -10 100
-2 19 -7 64 -10 100 -3 36 -8 83 -10 105 -3 22 -7 60 -10 85 -2 25 -7 65 -10
90 -2 25 -7 72 -10 105 -3 33 -8 76 -10 95 -2 19 -7 62 -10 95 -11 121 -15
161 -20 195 -4 35 -10 90 -19 185 -3 28 -8 74 -11 103 -2 28 -7 73 -10 100 -2
26 -7 72 -10 102 -14 146 -23 212 -30 218 -6 6 -682 8 -706 2z"/>
<path d="M360 1082 c-7 -3 -10 -192 -10 -543 l0 -539 53 5 c28 3 68 7 87 10
19 2 67 7 105 10 39 4 86 9 105 11 19 3 58 7 85 9 59 6 105 11 200 20 86 9
102 11 190 19 39 4 81 9 95 11 14 3 52 7 85 10 74 6 172 16 205 20 14 1 54 5
90 9 36 4 85 9 110 11 25 3 70 7 100 10 94 8 164 16 190 20 28 5 150 17 285
29 33 3 78 8 100 11 22 2 67 7 100 10 33 3 71 8 85 10 14 3 61 7 105 10 44 4
87 8 95 10 8 2 49 6 90 10 41 3 91 8 110 10 62 8 150 17 285 30 33 3 76 8 95
10 49 6 125 14 195 20 107 10 117 12 124 23 8 14 6 710 -2 719 -7 6 -3337 11
-3357 5z"/>
</g>
</svg>
